#!OML:ASF F:\VICON\USERDATA\INSTALL\rory3\rory3.ASF
:FULLY-SPECIFIED
:DEGREES
616
root 2.47395 18.9389 23.5408 53.0698 -25.621 -34.8057
lowerback -8.70215 5.28347 13.966
upperback -18.092 7.42889 9.33187
thorax -15.6385 2.3844 2.91633
lowerneck -9.59305 14.2126 4.73082
upperneck -1.09385 18.177 5.97512
head 1.05267 9.15659 1.78745
rclavicle 3.11595e-014 1.78906e-014
rhumerus -31.5974 -48.7308 34.254
rradius 16.1195
rwrist 46.3007
rhand 15.3657 -4.40697
rfingers 7.12502
rthumb 40.1958 -29.5736
lclavicle 3.11595e-014 1.78906e-014
lhumerus 64.674 26.8051 17.0948
lradius 24.263
lwrist -32.962
lhand 9.77754 21.7973
lfingers 7.12502
lthumb 34.9153 48.3731
rfemur 13.9005 18.4227 12.8574
rtibia 17.9355
rfoot 22.3311 -44.5432
rtoes 42.7882
lfemur -49.7578 22.0409 5.37211
ltibia 25.8452
lfoot -40.7229 8.21847
ltoes 52.9251
617
root 2.46689 18.9429 23.5476 53.0807 -25.9035 -34.9751
lowerback -8.34099 5.21466 13.7145
upperback -17.953 7.40828 9.32951
thorax -15.6855 2.40885 3.01042
lowerneck -10.181 14.2883 5.00013
upperneck -0.803567 18.171 6.12107
head 1.25806 9.17193 1.86512
rclavicle -1.29707e-014 -9.50191e-014
rhumerus -34.4208 -54.8831 38.5047
rradius 15.7761
rwrist 52.7346
rhand 15.8167 -4.14898
rfingers 7.12502
rthumb 40.6199 -29.185
lclavicle -1.29707e-014 -9.50191e-014
lhumerus 67.0894 28.059 20.3706
lradius 23.9995
lwrist -34.4398
lhand 10.7283 22.0511
lfingers 7.12502
lthumb 35.8168 48.4124
rfemur 14.2688 18.5897 12.4089
rtibia 18.2166
rfoot 21.2615 -44.8586
rtoes 43.7212
lfemur -49.2137 22.254 5.40234
ltibia 25.4291
lfoot -40.8595 8.30448
ltoes 52.9362
618
root 2.45795 18.9488 23.5536 53.0992 -26.3296 -34.9909
lowerback -8.49597 5.31295 13.4834
upperback -17.6499 7.45332 9.12012
thorax -15.1345 2.47031 2.86674
lowerneck -10.3525 14.1863 4.92511
upperneck -1.27086 18.053 6.25602
head 1.11463 9.10158 1.89641
rclavicle -2.16178e-014 3.61788e-014
rhumerus -36.7122 -57.6479 41.491
rradius 15.9528
rwrist 55.9464
rhand 16.9807 -3.45795
rfingers 7.12502
rthumb 41.7127 -28.1435
lclavicle -2.16178e-014 3.61788e-014
lhumerus 69.4529 28.9754 22.8186
lradius 23.6607
lwrist -34.591
lhand 11.0651 22.2986
lfingers 7.12502
lthumb 36.1359 48.5816
rfemur 14.4099 18.7164 11.7475
rtibia 18.6297
rfoot 20.7696 -44.8962
rtoes 44.0705
lfemur -48.6722 22.4251 5.17691
ltibia 24.9504
lfoot -41.0427 8.17781
ltoes 52.8631
619
root 2.44901 18.9559 23.5535 53.3794 -26.8176 -34.9881
lowerback -7.94285 5.06815 12.6224
upperback -18.1838 7.34464 9.47505
thorax -16.3724 2.52116 3.75148
lowerneck -9.03018 14.2106 4.85138
upperneck -1.26424 18.2132 6.42889
head 0.868878 9.16798 1.84555
rclavicle -3.8117e-014 -9.74045e-014
rhumerus -32.2963 -55.8387 37.9622
rradius 16.0545
rwrist 54.6853
rhand 18.1611 -3.10387
rfingers 7.12502
rthumb 42.8183 -27.4137
lclavicle -3.8117e-014 -9.74045e-014
lhumerus 68.5689 28.3901 22.1389
lradius 23.6597
lwrist -33.1185
lhand 10.8055 22.4968
lfingers 7.12502
lthumb 35.8899 48.8402
rfemur 14.1761 18.8059 10.947
rtibia 19.0024
rfoot 20.9582 -44.7306
rtoes 44.3142
lfemur -48.4672 22.7404 4.79366
ltibia 24.5072
lfoot -41.201 8.30462
ltoes 52.8252
620
root 2.43754 18.9574 23.5517 53.9182 -26.958 -35.1843
lowerback -8.79829 5.3272 12.7204
upperback -17.814 7.43119 9.2116
thorax -15.2488 2.56716 3.40295
lowerneck -9.38501 13.9549 4.68585
upperneck -2.12702 17.9116 6.4529
head 0.635611 8.991 1.84527
rclavicle -1.18277e-014 0
rhumerus -33.7677 -56.9062 39.3843
rradius 16.1727
rwrist 54.9585
rhand 18.3937 -3.45839
rfingers 7.12502
rthumb 43.0359 -27.6916
lclavicle -1.18277e-014 0
lhumerus 70.8999 29.3095 23.9485
lradius 23.3649
lwrist -33.1879
lhand 10.4167 22.5805
lfingers 7.12502
lthumb 35.5215 49.0132
rfemur 13.7706 18.7696 10.5735
rtibia 19.3167
rfoot 21.5289 -44.4841
rtoes 44.2919
lfemur -48.5705 23.1485 4.79163
ltibia 24.1421
lfoot -41.4108 8.6917
ltoes 52.886
621
root 2.42614 18.9516 23.5478 54.3994 -26.8354 -35.5413
lowerback -8.62908 5.21858 12.8176
upperback -18.1726 7.37423 9.48765
thorax -15.9106 2.52106 3.70259
lowerneck -8.65489 13.8683 4.59438
upperneck -1.98296 17.8627 6.76266
head 0.526301 8.96637 1.89225
rclavicle -2.43511e-015 -3.18055e-015
rhumerus -31.6841 -57.2373 37.8764
rradius 16.1085
rwrist 55.273
rhand 18.4852 -4.28939
rfingers 7.12502
rthumb 43.1215 -28.4923
lclavicle -2.43511e-015 -3.18055e-015
lhumerus 70.8813 28.9803 24.1527
lradius 23.299
lwrist -32.9321
lhand 10.6859 22.7086
lfingers 7.12502
lthumb 35.7766 49.0796
rfemur 13.5676 18.6187 10.5874
rtibia 19.4765
rfoot 21.9396 -44.1253
rtoes 43.9553
lfemur -48.6352 23.5004 5.13795
ltibia 23.8936
lfoot -41.6555 8.65802
ltoes 52.939
622
root 2.41178 18.9454 23.5403 54.7138 -26.6638 -35.8924
lowerback -9.03295 5.42981 13.3938
upperback -17.8979 7.49893 9.20049
thorax -15.1667 2.50122 3.06272
lowerneck -9.18088 13.5665 4.8044
upperneck -2.01491 17.3943 6.93295
head 0.614831 8.7407 1.94427
rclavicle -1.09033e-013 -1.35174e-014
rhumerus -39.3469 -64.1736 46.3066
rradius 15.8507
rwrist 62.9139
rhand 18.6406 -3.04038
rfingers 7.12502
rthumb 43.2667 -27.1914
lclavicle -1.09033e-013 -1.35174e-014
lhumerus 73.4126 29.4638 26.5444
lradius 22.9946
lwrist -34.261
lhand 10.8665 22.5276
lfingers 7.12502
lthumb 35.9477 48.8569
rfemur 13.5118 18.3604 10.7015
rtibia 19.5666
rfoot 23.9659 -42.8388
rtoes 42.3887
lfemur -48.6035 23.7561 5.53793
ltibia 23.8187
lfoot -41.7482 8.14815
ltoes 53.0075
